<?xml version="1.0" encoding="UTF-8" standalone="no"?>
<!-- Created with Inkscape (http://www.inkscape.org/) -->

<svg
   width="210mm"
   height="297mm"
   viewBox="0 0 210 297"
   version="1.1"
   id="svg5"
   inkscape:version="1.2.2 (b0a8486541, 2022-12-01)"
   sodipodi:docname="arm.svg"
   xmlns:inkscape="http://www.inkscape.org/namespaces/inkscape"
   xmlns:sodipodi="http://sodipodi.sourceforge.net/DTD/sodipodi-0.dtd"
   xmlns="http://www.w3.org/2000/svg"
   xmlns:svg="http://www.w3.org/2000/svg">
  <sodipodi:namedview
     id="namedview7"
     pagecolor="#505050"
     bordercolor="#ffffff"
     borderopacity="1"
     inkscape:showpageshadow="0"
     inkscape:pageopacity="0"
     inkscape:pagecheckerboard="1"
     inkscape:deskcolor="#505050"
     inkscape:document-units="mm"
     showgrid="false"
     showguides="false"
     inkscape:zoom="0.5"
     inkscape:cx="248"
     inkscape:cy="479"
     inkscape:window-width="1920"
     inkscape:window-height="1011"
     inkscape:window-x="0"
     inkscape:window-y="32"
     inkscape:window-maximized="1"
     inkscape:current-layer="svg5" />
  <defs
     id="defs2">
    <inkscape:path-effect
       effect="spiro"
       id="path-effect3138"
       is_visible="true"
       lpeversion="1" />
    <inkscape:path-effect
       effect="spiro"
       id="path-effect3116"
       is_visible="true"
       lpeversion="1" />
    <inkscape:path-effect
       effect="spiro"
       id="path-effect3068"
       is_visible="true"
       lpeversion="1" />
    <inkscape:path-effect
       effect="spiro"
       id="path-effect2811"
       is_visible="true"
       lpeversion="1" />
    <inkscape:path-effect
       effect="spiro"
       id="path-effect2807"
       is_visible="true"
       lpeversion="1" />
    <inkscape:path-effect
       effect="spiro"
       id="path-effect2803"
       is_visible="true"
       lpeversion="1" />
    <clipPath
       clipPathUnits="userSpaceOnUse"
       id="clipPath2178">
      <path
         id="path2180"
         style="fill:#ff0000;fill-opacity:1;fill-rule:nonzero;stroke:none;stroke-width:0.264583"
         d="m 104.26559,106.05211 -30.843083,5.3e-4 c -0.09377,0.16487 -0.185407,0.33119 -0.273367,0.49971 -0.302604,0.59825 -0.584272,1.20693 -0.871265,1.81281 -0.211072,0.45929 -0.434475,0.91115 -0.690915,1.34669 -0.39207,0.63618 -0.993711,1.07488 -1.571995,1.52497 -0.607767,0.64834 -1.214795,1.29828 -1.818495,1.95079 -0.632272,0.66613 -1.276355,1.32237 -1.965253,1.93063 -0.554281,0.48939 -0.890826,0.74673 -1.45986,1.19993 -0.778097,0.6197 -1.532879,1.02452 -2.236039,1.25263 -0.781526,0.46781 -1.613183,0.8457 -2.438611,1.22887 -0.75547,0.3402 -1.493528,0.71691 -2.228287,1.09916 -0.119623,0.0622 -0.237257,0.11824 -0.353467,0.17001 -0.275871,0.39143 -0.469202,0.67766 -0.805119,1.17202 -0.610349,1.35033 -1.087671,2.75549 -1.513086,4.17391 -0.237387,0.74718 -0.403908,1.51445 -0.645438,2.26033 -0.06111,0.18871 -0.127339,0.37579 -0.192238,0.56327 0.07891,0.36202 0.136503,0.75272 0.167949,1.1746 0.05259,0.7055 0.166047,1.40212 0.313158,2.09342 0.149987,0.67538 0.34053,1.34026 0.537954,2.00297 1.891802,-2.01034 3.125168,-3.38064 3.95428,-3.39255 0.76632,-0.011 1.194924,1.13058 1.49965,3.97908 0.06382,0.59659 -0.02392,1.19152 -0.125574,1.77819 -0.09003,0.51366 -0.2413,1.01302 -0.377237,1.51567 -0.09477,0.34346 -0.198012,0.68412 -0.27957,1.03094 -0.08795,0.38525 -0.193685,0.76513 -0.312126,1.14205 -0.14138,0.4502 -0.334505,0.88101 -0.536919,1.30638 -0.109442,0.23161 -0.230489,0.45697 -0.355018,0.68058 0.01503,0.31644 0.02466,0.63321 0.03204,0.94981 0.02283,0.58898 -0.07976,1.16773 -0.232545,1.73375 -0.01521,0.053 -0.03299,0.10505 -0.04961,0.15761 0.0031,0.0575 0.0058,0.11503 0.0078,0.1726 0.0064,0.15968 0.01003,0.31927 0.0041,0.47904 -0.0036,0.14399 -0.0087,0.28804 -0.02222,0.4315 -0.01286,0.13507 -0.02724,0.26997 -0.05426,0.40308 -0.01598,0.0857 -0.02736,0.17261 -0.03566,0.25941 -0.005,0.0677 -0.0073,0.13519 -0.0062,0.20309 -0.0011,0.0876 -0.0024,0.17512 -0.0083,0.26252 -0.0087,0.10949 -0.02188,0.21862 -0.05013,0.32504 -0.02895,0.10106 -0.06495,0.20022 -0.0987,0.29972 -0.03867,0.1058 -0.0818,0.20974 -0.11989,0.31575 -0.02387,0.0669 -0.0495,0.13225 -0.0646,0.20205 -0.104635,0.48341 -0.25768,0.28137 -0.425812,-0.0222 -0.04099,0.10399 -0.0852,0.21211 -0.135909,0.32866 -0.0026,0.006 -0.01,0.0244 -0.0083,0.0181 0.0033,-0.0124 0.01048,-0.0359 0.01654,-0.0553 -0.01418,0.0396 -0.05406,0.15997 -0.04289,0.11937 0.01365,-0.0496 0.03037,-0.0988 0.05013,-0.14625 0.0013,-0.003 0.0016,-0.004 0.0021,-0.005 -0.0026,0.008 -0.0046,0.0169 -0.0072,0.0253 0.0048,-0.0153 0.0084,-0.0266 0.0078,-0.0258 0.03191,-0.10282 0.06237,-0.20629 0.09043,-0.31006 -0.106526,-0.19647 -0.218316,-0.41974 -0.32711,-0.5271 -0.158268,0.20681 -0.349847,0.3003 -0.523483,0.29404 -0.900374,6.36078 -7.452968,5.41057 -6.533967,-1.03095 0.0021,-0.014 0.0042,-0.0279 0.0062,-0.0419 -0.322794,-0.89871 -0.400108,-2.07289 -0.08733,-3.49436 0.101172,-0.45979 0.207105,-0.91876 0.327113,-1.37407 0.0064,-0.0276 0.01278,-0.0556 0.01913,-0.0832 -0.0727,-0.30116 -0.13458,-0.60475 -0.172598,-0.91261 -0.0337,-0.28717 -0.05445,-0.57673 -0.112657,-0.86041 -0.09899,-0.44867 -0.216189,-0.89267 -0.362252,-1.3286 -0.226068,-0.74278 -0.450144,-1.48594 -0.684194,-2.22622 -0.01416,-0.0466 -0.02773,-0.0934 -0.04186,-0.14004 -0.397322,0.0427 -0.784487,0.001 -1.142047,-0.12454 v 18.90685 h 56.206392 z m -56.20639,5.3e-4 v 20.1657 c 0.116927,-0.33511 0.187973,-0.52257 0.283702,-0.85318 0.178638,-0.61692 0.320392,-1.2446 0.519866,-1.8557 0.578969,-1.91999 1.241372,-3.81781 2.114598,-5.62653 0.551804,-1.12053 0.699153,-1.45378 1.32085,-2.57142 0.544896,-0.97957 1.127236,-1.93664 1.732193,-2.87941 -0.729449,-1.22581 -1.128644,-2.96523 -0.923973,-5.20278 0.03607,-0.39432 0.07896,-0.78807 0.143142,-1.17668 z m 9.195302,0 c 0.100973,0.39491 0.209854,0.78622 0.327628,1.16324 0.265724,-0.38604 0.529215,-0.77373 0.789618,-1.16324 z" />
    </clipPath>
    <clipPath
       clipPathUnits="userSpaceOnUse"
       id="clipPath2475">
      <path
         id="path2477"
         style="fill:#ff0000;fill-opacity:1;fill-rule:nonzero;stroke:none;stroke-width:0.264583"
         d="m 34.52916,78.082571 v 88.529479 c 0.786312,-1.89197 1.56002,-3.6726 2.43551,-3.59409 0.223044,0.02 0.452755,0.16253 0.690912,0.45268 0.07234,-0.20331 0.149254,-0.40506 0.219109,-0.60926 0.145593,-0.44265 0.267111,-0.79363 0.392224,-1.2423 0.20723,-0.74315 0.362217,-1.5015 0.442868,-2.26912 0.0091,-0.15497 0.03055,-0.45061 0.02945,-0.6258 -5.29e-4,-0.0654 -0.0062,-0.13045 -0.0093,-0.19585 -0.0013,-0.0258 -0.01916,-0.0985 -0.0036,-0.0775 0.04595,0.0636 0.03537,0.15606 0.08165,0.22066 1.00879,1.40724 1.630199,0.90245 2.101165,-0.0532 -0.08683,-0.41825 -0.200015,-0.8297 -0.314193,-1.24127 -0.174633,-0.69911 -0.321191,-1.40554 -0.422714,-2.11925 -0.06861,-0.50681 -0.12813,-1.01441 -0.187068,-1.52239 -0.283509,-2.4434 0.892323,-3.74958 2.137854,-3.74758 1.098995,0.002 2.252038,1.02257 2.504239,3.1781 0.05711,0.48815 0.113535,0.97611 0.179835,1.46296 0.08149,0.53817 0.185555,1.07339 0.321945,1.60042 0.143002,0.49678 0.268912,0.99769 0.374136,1.50379 0.09628,0.47227 0.136311,0.95318 0.1788,1.43247 0.02548,0.3287 0.04502,0.65761 0.07235,0.98598 0.02172,0.24837 0.03357,0.49762 0.04237,0.74673 0.0071,0.2311 0.0086,0.46232 0.0098,0.6935 0.0011,0.21431 0.0013,0.42855 0.0016,0.64285 0.0036,3.31046 -2.385664,4.25533 -3.75016,2.83342 -0.351274,0.98605 -0.726699,1.96365 -1.086238,2.94659 -0.05601,0.15665 -0.112438,0.31292 -0.167947,0.46974 -0.118785,0.33559 -0.207555,0.59978 -0.331764,0.93483 -0.04436,0.11966 -0.09445,0.23707 -0.14056,0.35605 0.243025,0.50349 0.49248,1.00389 0.742593,1.50378 0.422563,0.87725 0.91127,1.71955 1.401463,2.56005 0.395507,0.6807 0.774341,1.37094 1.147734,2.06396 0.290772,0.56821 0.596595,1.12787 0.90847,1.68465 0.3341,0.57609 0.652407,1.16094 0.94723,1.75803 0.237381,0.49973 0.462801,1.00482 0.699699,1.50482 0.344857,0.71356 0.610888,1.46245 0.869198,2.21072 0.185931,0.44841 0.299434,0.93064 0.512114,1.36787 0.160933,0.35178 0.306398,0.71129 0.476457,1.05885 0.124534,0.22131 0.227907,0.45461 0.358116,0.67283 0.116612,0.23308 0.200459,0.33809 0.343649,0.51315 0.481189,0.54156 0.90588,1.1252 1.30638,1.72806 0.412335,0.61931 0.863169,1.21165 1.297596,1.81539 0.435446,0.59736 0.828029,1.22355 1.219562,1.85002 0.482828,-1.18185 0.175073,-3.8211 0.887286,-3.80701 0.216202,0.004 0.526478,0.25307 0.981334,0.86145 0.0618,0.0827 0.118997,0.1686 0.178803,0.2527 0.01437,-0.002 0.02904,-0.003 0.04444,-0.004 0.230712,-0.008 0.57779,0.11078 1.080556,0.39739 0.338392,0.19297 0.624655,0.44365 0.869715,0.74673 0.215905,0.26702 0.388934,0.56845 0.565337,0.86196 0.198718,0.33275 0.406914,0.65942 0.613918,0.98702 0.153985,0.25268 0.327324,0.49259 0.497645,0.73432 0.176702,0.24403 0.351567,0.48944 0.52193,0.73794 0.137681,0.19681 0.250621,0.40989 0.389641,0.60565 0.145328,0.20533 0.292127,0.40956 0.433565,0.61753 1.471253,2.16444 0.864219,3.94855 -0.406694,4.39612 -0.899213,1.17499 -2.939589,1.04362 -4.293277,-1.41232 -0.06117,-0.11097 -0.122073,-0.22236 -0.181385,-0.33434 -0.122494,-0.22947 -0.238006,-0.46268 -0.362768,-0.69092 -0.02283,-0.0399 -0.04658,-0.0793 -0.0708,-0.11834 0.278506,5.31174 -5.991651,7.19368 -9.471774,0.48214 -0.06226,-0.12002 -0.02418,-0.0494 -0.117821,-0.2098 -0.31487,-0.50384 -0.623517,-1.01238 -0.973585,-1.49293 -0.503431,-0.7004 -1.026043,-1.38736 -1.500166,-2.1084 -0.05083,-0.0769 -0.101616,-0.15359 -0.152445,-0.23048 -0.0016,-0.007 -7.94e-4,-0.0157 -0.0047,-0.0217 -0.204483,-0.32505 -0.519414,-0.57402 -0.730705,-0.89452 -0.407305,-0.52967 -0.796613,-1.0733 -1.111044,-1.6645 -0.231534,-0.41493 -0.450942,-0.83597 -0.663524,-1.26091 -0.214638,-0.45666 -0.418894,-0.91824 -0.621668,-1.38027 -0.278058,-0.66337 -0.523301,-1.33928 -0.762743,-2.01745 -0.143373,-0.4204 -0.283613,-0.84518 -0.475941,-1.24592 -0.223067,-0.47099 -0.436922,-0.9458 -0.657841,-1.41748 -0.203219,-0.44069 -0.464042,-0.85324 -0.696598,-1.27848 -0.338185,-0.60379 -0.670959,-1.21034 -0.986502,-1.82624 -0.277913,-0.51843 -0.562768,-1.03295 -0.854728,-1.54358 v 39.19864 h 49.953024 c -2.129375,-1.40278 -6.467785,-2.91197 -2.493907,-4.08399 0.301215,-0.0888 0.591862,-0.14732 0.900721,-0.20102 0.219757,-0.0353 0.438459,-0.0511 0.656807,-0.0517 0.655047,-0.002 1.303337,0.13364 1.940451,0.29766 0.652262,0.18311 1.289169,0.41515 1.927014,0.64234 0.522787,0.19832 1.038973,0.41447 1.549775,0.64182 0.402477,0.17465 0.800955,0.35909 1.199928,0.54157 0.412499,0.18481 0.826106,0.36711 1.243335,0.54105 0.437978,0.15928 0.867664,0.33894 1.296562,0.5209 0.02246,-0.004 0.04264,-0.007 0.06563,-0.0108 0.66697,-0.10004 1.342808,-0.11505 2.015898,-0.13384 0.172976,-0.004 0.345913,-0.005 0.518832,-0.004 0.501864,0.002 1.003503,0.0199 1.504817,0.045 0.162592,-0.004 0.328428,-0.004 0.499714,0.002 0.08801,0.002 0.176053,0.005 0.264064,0.008 0.546256,0.0222 1.092653,0.053 1.635043,0.12454 0.423207,0.0556 0.847807,0.10165 1.267097,0.18345 0.30645,0.0422 0.61193,0.0936 0.9214,0.10955 0.42378,0.0265 0.84653,0.0675 1.27071,0.0837 0.60079,0.0196 1.20249,0.0193 1.80351,0.0264 0.50675,-0.002 1.01392,-0.0187 1.51878,-0.0641 0.41394,-0.0476 0.82696,-0.10449 1.24023,-0.15709 0.54347,-0.0963 1.08596,-0.19764 1.62626,-0.31058 0.57535,-0.10658 1.15164,-0.20942 1.73115,-0.29042 0.47694,-0.0792 0.95273,-0.16391 1.42576,-0.26458 0.56374,-0.10839 1.12814,-0.2157 1.68982,-0.33435 0.56193,-0.14329 1.09148,-0.39282 1.65106,-0.54519 0.28539,-0.0827 0.48254,-0.14322 0.77981,-0.21342 0.31133,-0.0736 0.62993,-0.1084 0.94308,-0.1726 0.63861,-0.11734 1.27694,-0.2411 1.91875,-0.339 0.30837,-0.0326 0.61769,-0.0638 0.92812,-0.0646 3.38825,-0.009 5.02217,1.76289 4.90356,3.4742 h 45.52536 v -41.29883 c -0.44991,0.72471 -0.932,1.42891 -1.44797,2.1084 -0.5929,0.78244 -1.20147,1.55279 -1.81488,2.31924 -0.55342,0.71352 -1.08375,1.44486 -1.61696,2.17351 -0.55697,0.7593 -1.11257,1.51941 -1.63866,2.30064 -0.33686,0.49848 -0.67675,0.99491 -1.03197,1.48053 -0.15055,0.22671 -0.30033,0.4524 -0.43977,0.68626 -0.0411,0.0689 -0.0774,0.14101 -0.11627,0.21136 0.069,0.30048 0.12516,0.60379 0.15968,0.91105 0.0329,0.32281 0.056,0.49002 0.062,0.81701 0.0133,0.76508 -0.0729,1.52643 -0.29301,2.26136 -0.20469,0.5837 -0.23048,0.7285 -0.52606,1.28105 -0.47072,0.87995 -1.12198,1.64643 -1.86242,2.31046 -0.51419,0.42389 -0.71812,0.61615 -1.29811,0.98547 -0.67211,0.42796 -1.43501,0.79601 -2.22054,0.95704 -0.29953,0.0615 -0.6063,0.0784 -0.9095,0.11783 -0.43274,-0.0592 -0.88054,-0.0509 -1.29863,-0.17725 -0.34275,-0.10359 -0.66902,-0.26386 -0.9679,-0.46664 -0.25594,0.24636 -0.49299,0.51441 -0.75241,0.75551 -0.39033,0.381 -0.77926,0.7629 -1.16427,1.14928 -0.042,0.0409 -0.0851,0.0815 -0.12713,0.12248 -0.39853,0.4571 -0.81393,0.81271 -1.23196,1.0759 -0.25153,0.18257 -0.51223,0.35204 -0.79892,0.48162 -1.39032,0.6284 -1.94477,0.48227 -2.06137,-0.0698 -1.63932,-0.63729 -2.48595,-2.9185 -0.86042,-5.84822 -0.0522,0.0329 -0.10385,0.0667 -0.15916,0.0941 -0.0249,0.0122 0.0392,-0.0394 0.0594,-0.0584 0.0577,-0.0542 0.11443,-0.1092 0.17208,-0.16329 0.0227,-0.0394 0.0455,-0.0787 0.0693,-0.11834 0.27477,-0.46172 0.55716,-0.92035 0.88883,-1.34411 0.31315,-0.38001 0.63525,-0.75601 1.01338,-1.07383 v -5.3e-4 c 0.74405,-0.62541 1.22907,-0.89312 1.5353,-0.90485 0.0691,-0.003 0.12907,0.008 0.18087,0.03 0.29573,-0.20103 0.60096,-0.38841 0.90899,-0.57051 0.38101,-0.2177 0.76529,-0.43007 1.15807,-0.6258 1.00354,-0.51964 1.92846,-0.72025 3.12384,-0.31058 0.30011,0.10286 0.55507,0.29482 0.80305,0.50023 0.011,-0.0192 0.0233,-0.0375 0.0331,-0.0574 0.011,-0.0222 0.0481,-0.10233 -0.005,-0.0946 -0.007,-0.10946 -0.0247,-0.20665 -0.0444,-0.31471 -0.0179,-0.16659 -0.0624,-0.29922 -0.0977,-0.42064 -0.12777,-0.4247 -0.23216,-0.84262 -0.23616,-1.29656 -0.003,-0.32517 0.0369,-0.65059 0.0894,-0.97152 0.0378,-0.231 0.12025,-0.45229 0.18035,-0.67851 0.35234,-1.02121 0.92696,-1.94094 1.5198,-2.83652 0.3608,-0.50488 0.71644,-1.01306 1.0635,-1.52756 0.57397,-0.85245 1.17933,-1.6825 1.78697,-2.51095 0.56556,-0.77579 1.13269,-1.55078 1.71979,-2.31046 0.59593,-0.74885 1.19342,-1.49687 1.76992,-2.26084 0.41402,-0.55066 0.81079,-1.11507 1.16634,-1.70532 0.10711,-0.20306 0.22664,-0.40467 0.29094,-0.62684 0.034,-0.11751 0.059,-0.23745 0.091,-0.35553 0.11318,-0.49105 0.27035,-0.9767 0.34055,-1.47692 -0.003,-0.22334 -0.0269,0.22919 -0.0419,0.17209 -0.0154,-0.06 -0.0127,-0.1237 -0.0217,-0.185 -0.0103,-0.0702 -0.0235,-0.14001 -0.0367,-0.20981 -0.0548,-0.29017 -0.066,-0.32829 -0.13384,-0.62942 -0.13394,-0.5647 -0.39581,-1.08186 -0.66559,-1.59112 -0.29842,-0.52528 -0.63375,-1.02856 -0.96067,-1.53634 -0.2133,-0.34677 -0.46743,-0.66371 -0.71933,-0.98237 -0.19984,-0.25333 -0.39239,-0.51242 -0.58601,-0.77049 -2.6402,-3.51921 -1.118,-6.46596 1.35702,-6.43217 1.20873,0.0165 2.64473,0.74421 3.93413,2.4629 0.16018,0.21351 0.31874,0.42781 0.48369,0.63769 0.38439,0.4863 0.76294,0.97778 1.09244,1.50378 0.38798,0.60265 0.78114,1.2032 1.13326,1.8278 v -36.89335 c -0.083,0.12985 -0.16589,0.25975 -0.24804,0.39016 -0.48344,0.73881 -0.98531,1.46619 -1.43196,2.22829 -0.11484,0.20167 -0.21726,0.37162 -0.31626,0.58084 -0.2301,0.48649 -0.39067,1.00297 -0.51728,1.52497 -0.17613,0.72496 -0.34578,1.45164 -0.48162,2.1854 -0.0501,0.25782 -0.10398,0.51224 -0.0997,0.77669 0.0156,0.4052 0.0369,0.81106 0.0853,1.21388 0.0354,0.28791 0.0688,0.57496 0.13849,0.85732 0.0961,0.55651 0.15732,1.11856 0.15813,1.68413 0.01,0.44336 0.0249,0.88784 -0.009,1.33067 -0.4787,6.53049 -6.95465,6.08516 -6.59908,-0.4532 0.0131,-0.2447 -8e-4,-0.48993 -0.005,-0.73484 -0.007,-0.20585 -0.003,-0.4235 -0.0501,-0.62322 -0.0942,-0.41347 -0.14777,-0.83429 -0.19947,-1.2547 -0.0718,-0.58339 -0.10539,-1.17 -0.12919,-1.757 -0.0274,-0.76589 0.07,-1.52363 0.21084,-2.27428 0.15601,-0.84245 0.34987,-1.67741 0.55139,-2.50993 0.21197,-0.86518 0.48441,-1.71739 0.84904,-2.53111 0.24439,-0.54541 0.34645,-0.70887 0.62838,-1.22421 0.47825,-0.84041 1.02246,-1.64028 1.55392,-2.4474 -0.071,-0.12924 -0.14903,-0.27503 -0.26769,-0.49041 -0.11696,-0.26805 -0.24351,-0.53205 -0.35088,-0.80408 -0.25683,-0.6507 -0.38876,-1.11718 -0.58136,-1.79318 -0.006,-0.0209 -0.0101,-0.0421 -0.016,-0.063 -0.2845,-0.10016 -0.65949,-0.3266 -1.14773,-0.709 -0.27559,-0.21581 -0.56638,-0.41367 -0.82683,-0.64751 -0.4452,-0.39972 -0.88934,-1.04792 -1.19734,-1.51877 -0.7066,-1.08019 -1.27411,-2.24969 -1.85829,-3.39772 -1.03621,-2.10519 -2.06776,-4.21283 -3.11453,-6.3128 -0.53859,-1.04067 -1.10661,-2.06581 -1.67174,-3.09231 -0.0869,-0.0142 -0.17327,-0.0318 -0.25993,-0.0476 -0.33943,1.26108 -2.04576,1.54718 -3.28765,-0.34623 -0.31753,-0.4841 -0.62041,-0.9775 -0.91416,-1.47639 -0.3666,-0.63148 -0.72452,-1.26906 -1.04283,-1.9265 -0.22943,-0.50555 -0.45316,-1.01348 -0.68316,-1.51877 -0.20985,-0.46468 -0.42005,-0.929791 -0.65526,-1.382347 -0.14681,-0.29132 -0.30339,-0.578258 -0.43563,-0.87643 -0.47166,-1.063508 -0.073,-1.133962 0.58498,-0.920874 0.21122,-0.520205 0.66011,-0.832755 1.19062,-0.844394 0.27238,-0.006 0.56583,0.06733 0.85835,0.230994 0.23442,-1.395738 1.29998,-2.301562 2.66702,-2.298051 1.21009,0.0031 2.65238,0.716949 3.95221,2.427758 0.12143,0.159837 0.24421,0.318519 0.37517,0.470773 0.4959,0.582605 1.02169,1.144024 1.41645,1.80454 0.22197,0.356699 0.43944,0.716031 0.65423,1.076941 0.4313,0.21837 0.84662,0.46914 1.25418,0.72812 0.80566,0.52797 1.60108,1.07799 2.32958,1.70997 0.89429,0.82036 1.73547,1.69893 2.50372,2.63912 0.15752,0.20169 0.31892,0.40029 0.47232,0.60513 0.71255,0.95157 1.33266,1.97055 1.8278,3.05201 0.48925,1.09783 0.91079,2.22262 1.26865,3.37033 0.53891,1.67732 1.06058,3.36096 1.495,5.06895 0.0855,0.33676 0.16912,0.67435 0.25425,1.01182 0.37481,-0.24205 0.751,-0.41573 1.11828,-0.51728 V 78.082571 h -46.23597 c -5.77874,2.504276 7.36212,6.383637 0.85576,6.525702 -0.21107,0.0046 -0.42225,0.02596 -0.63303,0.01394 -0.81836,-0.04648 -1.67831,-0.330248 -2.45153,-0.589627 -0.96267,-0.350316 -1.911,-0.738799 -2.86391,-1.114663 -0.69336,-0.275053 -1.39674,-0.523256 -2.10323,-0.762225 -0.62366,-0.217236 -1.24763,-0.433538 -1.87224,-0.648023 -0.44059,-0.14483 -0.87415,-0.310269 -1.31465,-0.455271 0,0.0091 0.10444,0.04259 0.076,0.03979 -0.13452,-0.01323 -0.26738,-0.04006 -0.40101,-0.06046 -0.46144,-0.07047 -0.92201,-0.14487 -1.38286,-0.21911 -0.71108,-0.124462 -1.42298,-0.243379 -2.13217,-0.378269 -0.79742,-0.162846 -1.59234,-0.33795 -2.38074,-0.54002 -0.60099,-0.137872 -1.20888,-0.245081 -1.81281,-0.370004 -0.74128,-0.165714 -1.48682,-0.311753 -2.23345,-0.451133 -0.0777,-0.01722 -0.15502,-0.02514 -0.23254,-0.03979 -0.33693,0.01794 -0.6739,0.03672 -1.0108,0.05426 -1.06667,0.05146 -2.13308,0.104008 -3.197728,0.189138 -1.75147,0.134501 -3.501901,0.301482 -5.238441,0.571024 -0.638555,0.104195 -0.922435,0.145613 -1.532207,0.261482 -0.237172,0.04507 -0.597334,0.123989 -0.846976,0.172598 -0.297114,0.05786 0.04027,-0.01498 -0.194305,0.03669 -0.552958,0.121798 -1.031274,0.125648 -1.427818,0.04547 -0.588103,0.237426 -1.176243,0.474223 -1.764234,0.712102 -0.646266,0.281723 -1.297538,0.549587 -1.958536,0.7953 -0.446535,0.162531 -0.890868,0.331849 -1.337903,0.492993 -4.784333,1.724613 -7.204265,-1.653085 -5.158859,-4.281911 z m 25.271841,22.515419 c 0.01617,-5.3e-4 0.02543,0.0184 0.0083,0.0403 -0.04825,0.06 -0.0991,0.11765 -0.147794,0.17725 -0.0687,0.0878 -0.140803,0.17308 -0.208772,0.26148 -0.06099,0.0801 -0.109845,0.16816 -0.156065,0.25735 -0.04279,0.0851 -0.07957,0.17265 -0.116271,0.26045 -0.0335,0.0842 -0.06781,0.16843 -0.105936,0.25063 -0.0444,0.0936 -0.09462,0.18439 -0.146762,0.27389 -0.0592,0.10028 -0.120192,0.19899 -0.180351,0.29869 -0.05093,0.0866 -0.103195,0.17255 -0.157096,0.25735 -0.05045,0.0774 -0.101515,0.15441 -0.152445,0.23151 -0.05564,0.08 -0.107955,0.16198 -0.162264,0.24288 -0.08312,0.12198 -0.176741,0.23628 -0.274402,0.34675 -0.102205,0.11398 -0.214341,0.21863 -0.329178,0.31987 -0.08982,0.0764 -0.178681,0.15439 -0.27337,0.22479 -0.0087,0.006 -0.0173,0.0116 -0.02582,0.0176 -0.01513,0.01 -0.02821,0.0174 -0.04289,0.0279 -0.02797,0.0201 -0.05364,0.043 -0.07958,0.0656 -0.02482,0.0226 -0.04958,0.0456 -0.0739,0.0687 -0.02967,0.0282 -0.05809,-0.002 -0.02842,-0.03 0.02477,-0.0235 0.04965,-0.0468 0.07493,-0.0698 0.02727,-0.0238 0.05429,-0.0481 0.08372,-0.0692 0.01524,-0.0109 0.02726,-0.0176 0.04289,-0.0279 0.0082,-0.005 0.01669,-0.011 0.02479,-0.016 0.09379,-0.0697 0.181293,-0.14712 0.270267,-0.22272 0.113567,-0.10009 0.224478,-0.20339 0.325562,-0.31626 0.09647,-0.10909 0.188677,-0.22164 0.270785,-0.3421 0.05426,-0.0808 0.106675,-0.16298 0.162264,-0.24288 0.0508,-0.0769 0.102116,-0.15379 0.152445,-0.23099 0.05373,-0.0845 0.105809,-0.17002 0.15658,-0.25632 0.06005,-0.0995 0.120735,-0.19859 0.179835,-0.29869 0.0515,-0.0883 0.100822,-0.17787 0.144692,-0.27027 0.03793,-0.0817 0.07209,-0.16539 0.105421,-0.24908 0.03714,-0.0888 0.07449,-0.17745 0.117822,-0.26355 0.04737,-0.0913 0.09768,-0.18156 0.160197,-0.26355 0.06822,-0.0887 0.140316,-0.17441 0.209288,-0.26251 0.04861,-0.0595 0.09961,-0.11683 0.147796,-0.17674 0.008,-0.01 0.01643,-0.0142 0.02376,-0.0145 z m 105.163089,23.57118 c -0.19442,0.1014 -0.30803,0.25957 -0.31574,0.49092 0.10379,-0.16452 0.21009,-0.32769 0.31574,-0.49092 z M 45.424101,135.80515 c 0.02347,0.002 0.04267,0.0288 0.02946,0.0729 -0.08669,0.289 -0.167156,0.57996 -0.241845,0.8723 -0.07239,0.28673 -0.128757,0.57715 -0.177769,0.86868 -0.02418,0.16326 -0.02901,0.32839 -0.03721,0.49299 -0.0078,0.14531 -0.01177,0.29068 -0.01447,0.43615 -0.0021,0.11409 -0.0031,0.22851 -0.0036,0.34262 0.0043,0.15405 -0.01116,0.30737 -0.02635,0.46043 -0.01545,0.18392 -0.0391,0.36696 -0.06356,0.54984 -0.02657,0.17593 -0.04919,0.35238 -0.06408,0.52968 -0.02737,0.25693 -0.06436,0.51239 -0.102319,0.76792 -0.03162,0.21651 -0.0697,0.43216 -0.0987,0.64905 -0.01757,0.12996 -0.02907,0.26027 -0.03617,0.39119 -0.004,0.0854 -0.0061,0.17082 -0.0078,0.25632 0.0011,0.0362 -0.0038,0.0711 -0.02273,0.10232 -0.0038,0.005 -0.0076,0.008 -0.01138,0.0124 -0.05176,0.0571 -0.02658,-0.11187 -0.05168,-0.0703 0.0043,-0.0144 0.0024,-0.0312 0.0031,-0.046 0.0016,-0.0864 0.0037,-0.17302 0.0078,-0.25942 0.0073,-0.13306 0.01937,-0.26529 0.03721,-0.39739 0.02907,-0.21729 0.06698,-0.43319 0.0987,-0.65009 0.0377,-0.2538 0.07453,-0.5081 0.101803,-0.76326 0.01506,-0.17865 0.0378,-0.35655 0.0646,-0.53382 0.02434,-0.18194 0.0476,-0.36375 0.06305,-0.54673 0.01492,-0.15047 0.03065,-0.30125 0.02635,-0.45269 5.29e-4,-0.11451 7.94e-4,-0.22916 0.0031,-0.34365 0.0027,-0.14633 0.0067,-0.29256 0.01447,-0.43873 0.0084,-0.16782 0.01333,-0.33588 0.03824,-0.5023 0.0494,-0.2938 0.106347,-0.58643 0.179316,-0.87539 0.07511,-0.29391 0.155671,-0.58693 0.24288,-0.87747 0.01029,-0.0343 0.03136,-0.0487 0.04961,-0.0475 z m 116.576349,51.25992 c 0.0287,0.1 0.01,0.0317 0.0233,0.078 -0.002,-0.0119 -0.005,-0.0238 -0.008,-0.0357 -0.003,-0.0148 -0.0195,-0.0569 -0.0155,-0.0424 z m -6.90242,8.64443 c 0.008,-0.006 -0.0172,0.004 -0.094,0.0424 -0.0215,0.0106 -0.0431,0.0213 -0.0646,0.032 0.0821,-0.0354 0.14843,-0.067 0.15865,-0.0744 z" />
    </clipPath>
  </defs>
  <g
     inkscape:groupmode="layer"
     id="layer6"
     inkscape:label="Layer 1">
    <path
       style="fill:none;stroke:#000000;stroke-width:3;stroke-dasharray:none;stroke-opacity:1"
       d="m 137.84746,97.440003 c 1.99709,-2.611147 4.47896,-4.850257 7.28119,-6.568969 5.05496,-3.100401 10.99414,-4.440375 16.88002,-5.162532 13.41031,-1.645352 27.62579,-0.149577 39.19304,6.831998 0.28389,0.171347 0.56591,0.345798 0.84599,0.52331"
       id="path2801"
       inkscape:path-effect="#path-effect2803"
       inkscape:original-d="m 137.84746,97.440003 c 24.16095,-11.731766 4.85439,-4.379048 7.28119,-6.568969 2.4268,-2.18992 11.25361,-3.441423 16.88002,-5.162532 5.62641,-1.721109 26.12896,4.55493 39.19304,6.831998 13.06409,2.277068 0.56426,0.349138 0.84599,0.52331" />
    <path
       style="fill:none;stroke:#000000;stroke-width:3;stroke-dasharray:none;stroke-opacity:1"
       d="m 201.90445,93.001956 c 0.66497,0.535904 1.1813,1.254352 1.47723,2.055476 0.29593,0.801123 0.37063,1.682706 0.21373,2.522202 -0.24396,1.305293 -1.06231,2.492526 -2.19537,3.184966"
       id="path2805"
       inkscape:path-effect="#path-effect2807"
       inkscape:original-d="m 201.90445,93.001956 c 0.55407,1.516306 1.12757,3.052051 1.69096,4.577678 0.56338,1.525627 -1.46331,2.123575 -2.19537,3.184966" />
    <path
       style="fill:none;stroke:#000000;stroke-width:3;stroke-dasharray:none;stroke-opacity:1"
       d="m 201.14889,100.72598 c -4.07022,0.0704 -8.13792,0.2858 -12.19282,0.64553 -10.75931,0.95451 -21.49808,2.94813 -31.53803,6.93226 -3.28816,1.30483 -6.49292,2.81978 -9.58825,4.53254"
       id="path2809"
       inkscape:path-effect="#path-effect2811"
       inkscape:original-d="m 201.14889,100.72598 c -4.05394,0.21544 -8.12828,0.43062 -12.19282,0.64553 -4.06454,0.21492 -21.02509,4.62177 -31.53803,6.93226 -10.51295,2.31048 -6.3919,3.02195 -9.58825,4.53254" />
    <path
       style="fill:none;stroke:#000000;stroke-width:1.6;stroke-dasharray:none;stroke-opacity:1"
       d="m 200.59473,100.15292 c 0.29463,-0.0272 0.57689,-0.11057 0.86545,-0.170724"
       id="path2958" />
    <path
       style="fill:none;stroke:#000000;stroke-width:0.5;stroke-dasharray:none;stroke-opacity:1"
       d="m 201.33706,99.612068 c -0.1585,0.08551 -0.35659,0.09625 -0.53353,0.124166"
       id="path2970" />
    <path
       style="fill:none;stroke:#000000;stroke-width:0.1;stroke-dasharray:none;stroke-opacity:1"
       d="m 200.84258,99.285421 c 0.005,-0.0019 0.01,-0.0019 0.0146,0 0.003,0.0011 0.005,0.0028 0.008,0.0032 0.002,3.32e-4 0.005,0 0.007,0 h 0.007 0.008 c 0.007,0 0.0131,3.26e-4 0.0196,0 0.006,-2.8e-4 0.0112,-0.0012 0.0167,-0.0021 0.008,-0.0014 0.0169,-0.0027 0.0255,-0.0034 0.005,-3.89e-4 0.01,-5.86e-4 0.0143,-0.0021 0.005,-0.0017 0.01,-0.0049 0.0145,-0.0072 0.004,-0.002 0.009,-0.0033 0.0141,-0.0036 0.0103,-0.0031 0.0205,-0.007 0.0303,-0.0114 0.005,-0.0021 0.009,-0.0043 0.0135,-0.0066 0.002,-0.0027 0.005,-0.0048 0.008,-0.0062 0.002,-8.31e-4 0.004,-0.0014 0.006,-0.0016 0.001,-7.9e-4 0.003,-0.0013 0.004,-0.0016 0.001,-2.44e-4 0.003,-2.44e-4 0.004,0 0.002,-9.78e-4 0.004,-0.0019 0.006,-0.0029 0.006,-0.0027 0.0112,-0.0052 0.0168,-0.0077"
       id="path3114"
       inkscape:path-effect="#path-effect3116"
       inkscape:original-d="m 200.84258,99.285421 c 0.005,0.0016 0.01,-0.0011 0.0146,0 0.003,5.29e-4 0.005,0.0026 0.008,0.0032 0.002,5.29e-4 0.005,0 0.007,0 0.002,0 0.005,0 0.007,0 0.002,0 0.005,0 0.008,0 0.007,0 0.0131,2.65e-4 0.0196,0 0.006,-2.64e-4 0.0111,-0.0016 0.0167,-0.0021 0.0325,-0.0024 -0.0115,0.0037 0.0255,-0.0034 0.005,-7.94e-4 0.01,-5.29e-4 0.0143,-0.0021 0.005,-0.0016 0.009,-0.0053 0.0145,-0.0072 0.005,-0.0019 0.01,-0.0021 0.0141,-0.0036 0.001,-2.64e-4 0.0238,-0.0085 0.0303,-0.0114 0.005,-0.0021 0.009,-0.0044 0.0135,-0.0066 0.003,-0.0021 0.005,-0.0046 0.008,-0.0062 0.002,-0.0011 0.004,-7.93e-4 0.006,-0.0016 0.002,-5.29e-4 0.003,-0.0013 0.004,-0.0016 10e-4,-2.41e-4 0.003,5.29e-4 0.004,0 0.002,-5.29e-4 0.004,-0.0021 0.006,-0.0029 0.0186,-0.0083 -0.005,0.0033 0.0168,-0.0077" />
    <path
       style="fill:none;stroke:#000000;stroke-width:0.1;stroke-dasharray:none;stroke-opacity:1"
       d="m 201.11992,102.17674 c 0.18982,0.005 0.38021,-0.009 0.56698,-0.0436 0.16275,-0.0299 0.32276,-0.0748 0.47733,-0.13391"
       id="path3136"
       inkscape:path-effect="#path-effect3138"
       inkscape:original-d="m 201.11992,102.17674 c 0.18585,-0.01 0.3819,-0.0338 0.56698,-0.0436 0.18508,-0.01 0.3131,-0.0833 0.47733,-0.13391"
       sodipodi:nodetypes="ccc" />
    <path
       style="fill:none;stroke:#000000;stroke-width:0;stroke-dasharray:none;stroke-opacity:1"
       d="m 200.64165,101.14227 c 1.1743,0.13388 1.18303,0.13441 1.98156,-0.11842"
       id="path3279" />
    <path
       style="fill:none;stroke:#000000;stroke-width:0;stroke-dasharray:none;stroke-opacity:1"
       d="m 201.48648,101.1022 0.53103,0.0712"
       id="path3281" />
    <path
       style="fill:none;stroke:#000000;stroke-width:0;stroke-dasharray:none;stroke-opacity:1"
       d="m 200.61204,101.40408 c 0.49892,-0.12351 0.9985,-0.24274 1.48976,-0.38911"
       id="path3283" />
    <path
       style="fill:none;stroke:#000000;stroke-width:0;stroke-dasharray:none;stroke-opacity:1"
       d="m 201.81826,101.82422 c 0,-0.081 0,-0.16196 0,-0.24294"
       id="path3285" />
    <path
       style="fill:none;stroke:#000000;stroke-width:0.0334066;stroke-dasharray:none;stroke-opacity:1"
       d="m 760.34412,385.9577 c -3e-5,-0.0176 -0.0174,-1.02147 -0.0386,-2.23074 -0.0212,-1.20926 -0.0385,-2.26081 -0.0385,-2.33676 l 3e-5,-0.13811 0.1684,-0.0367 c 0.0926,-0.0202 0.31899,-0.0715 0.50303,-0.11398 0.18405,-0.0425 0.34188,-0.0757 0.35075,-0.0738 0.025,0.005 2.65846,4.32168 2.64231,4.33072 -0.0321,0.018 -0.52836,0.18142 -0.7147,0.23541 -0.83283,0.24126 -1.68667,0.37168 -2.54945,0.38939 l -0.32317,0.007 -7e-5,-0.0321 z"
       id="path3358"
       transform="scale(0.26458333)" />
    <path
       style="fill:#000000;stroke:#000000;stroke-width:0.0334066;stroke-dasharray:none;stroke-opacity:1;fill-opacity:1"
       d="m 760.36624,385.95225 c -3e-5,-0.0131 -0.017,-1.0012 -0.0727,-4.24295 l -0.008,-0.43772 0.054,-0.0125 c 0.44837,-0.10367 0.93836,-0.20875 0.94298,-0.20223 0.0735,0.10364 1.26253,2.04184 2.02433,3.29986 0.50251,0.82984 0.59265,0.98247 0.58491,0.99044 -0.0112,0.0115 -0.60055,0.20277 -0.77479,0.2514 -0.79682,0.2224 -1.5978,0.34049 -2.45441,0.36186 -0.25141,0.006 -0.29668,0.005 -0.29672,-0.008 z"
       id="path3360"
       transform="scale(0.26458333)" />
  </g>
</svg>
